<?xml version="1.0" encoding="UTF-8" standalone="no"?>
<!DOCTYPE svg PUBLIC "-//W3C//DTD SVG 1.1//EN"
 "http://www.w3.org/Graphics/SVG/1.1/DTD/svg11.dtd">
<!-- Generated by graphviz version 2.43.0 (0)
 -->
<!-- Title: desk_wiring Pages: 1 -->
<svg width="615pt" height="640pt"
 viewBox="0.00 0.00 614.50 640.00" xmlns="http://www.w3.org/2000/svg" xmlns:xlink="http://www.w3.org/1999/xlink">
<g id="graph0" class="graph" transform="scale(1 1) rotate(0) translate(4 636)">
<title>desk_wiring</title>
<polygon fill="white" stroke="transparent" points="-4,4 -4,-636 610.5,-636 610.5,4 -4,4"/>
<!-- monitor -->
<g id="node1" class="node">
<title>monitor</title>
<path fill="none" stroke="black" d="M12,-216.5C12,-216.5 191,-216.5 191,-216.5 197,-216.5 203,-222.5 203,-228.5 203,-228.5 203,-394.5 203,-394.5 203,-400.5 197,-406.5 191,-406.5 191,-406.5 12,-406.5 12,-406.5 6,-406.5 0,-400.5 0,-394.5 0,-394.5 0,-228.5 0,-228.5 0,-222.5 6,-216.5 12,-216.5"/>
<text text-anchor="middle" x="101.5" y="-394.5" font-family="Helvetica,sans-Serif" font-size="10.00">AORUS FV43U — 43″ 4K@144 monitor</text>
<polyline fill="none" stroke="black" points="0,-387.5 203,-387.5 "/>
<text text-anchor="middle" x="101.5" y="-375.5" font-family="Helvetica,sans-Serif" font-size="10.00">optical S/PDIF out</text>
<polyline fill="none" stroke="black" points="0,-368.5 203,-368.5 "/>
<text text-anchor="middle" x="101.5" y="-356.5" font-family="Helvetica,sans-Serif" font-size="10.00">3.5 mm audio jack</text>
<polyline fill="none" stroke="black" points="0,-349.5 203,-349.5 "/>
<text text-anchor="middle" x="101.5" y="-337.5" font-family="Helvetica,sans-Serif" font-size="10.00">HDMI 2.1 · #1</text>
<polyline fill="none" stroke="black" points="0,-330.5 203,-330.5 "/>
<text text-anchor="middle" x="101.5" y="-318.5" font-family="Helvetica,sans-Serif" font-size="10.00">HDMI 2.1 · #2</text>
<polyline fill="none" stroke="black" points="0,-311.5 203,-311.5 "/>
<text text-anchor="middle" x="101.5" y="-299.5" font-family="Helvetica,sans-Serif" font-size="10.00">DP 1.4</text>
<polyline fill="none" stroke="black" points="0,-292.5 203,-292.5 "/>
<text text-anchor="middle" x="101.5" y="-280.5" font-family="Helvetica,sans-Serif" font-size="10.00">USB&#45;C in — video + hub + PD</text>
<polyline fill="none" stroke="black" points="0,-273.5 203,-273.5 "/>
<text text-anchor="middle" x="101.5" y="-261.5" font-family="Helvetica,sans-Serif" font-size="10.00">USB&#45;B uplink</text>
<polyline fill="none" stroke="black" points="0,-254.5 203,-254.5 "/>
<text text-anchor="middle" x="101.5" y="-242.5" font-family="Helvetica,sans-Serif" font-size="10.00">USB&#45;A upper</text>
<polyline fill="none" stroke="black" points="0,-235.5 203,-235.5 "/>
<text text-anchor="middle" x="101.5" y="-223.5" font-family="Helvetica,sans-Serif" font-size="10.00">USB&#45;A lower</text>
</g>
<!-- g_backright -->
<g id="node5" class="node">
<title>g_backright</title>
<ellipse fill="none" stroke="black" stroke-dasharray="5,2" cx="186.5" cy="-117" rx="43" ry="43"/>
<text text-anchor="middle" x="186.5" y="-119.8" font-family="Helvetica,sans-Serif" font-size="9.00">back&#45;right</text>
<text text-anchor="middle" x="186.5" y="-109.8" font-family="Helvetica,sans-Serif" font-size="9.00">grommet</text>
</g>
<!-- monitor&#45;&gt;g_backright -->
<g id="edge7" class="edge">
<title>monitor:hi&#45;&gt;g_backright</title>
<path fill="none" stroke="#388e3c" stroke-width="1.8" d="M204.5,-244.5C217.17,-244.5 211.6,-225.75 203.5,-216 179.92,-187.64 145.58,-226.77 122.5,-198 106.81,-178.44 127.82,-156.16 149.86,-140.08"/>
<text text-anchor="middle" x="157.5" y="-185.8" font-family="Helvetica,sans-Serif" font-size="9.00">USB&#45;A → USB&#45;C</text>
</g>
<!-- cam -->
<g id="node7" class="node">
<title>cam</title>
<path fill="none" stroke="black" d="M19,-99C19,-99 82,-99 82,-99 88,-99 94,-105 94,-111 94,-111 94,-123 94,-123 94,-129 88,-135 82,-135 82,-135 19,-135 19,-135 13,-135 7,-129 7,-123 7,-123 7,-111 7,-111 7,-105 13,-99 19,-99"/>
<text text-anchor="middle" x="50.5" y="-120" font-family="Helvetica,sans-Serif" font-size="10.00">USB&#45;A camera</text>
<text text-anchor="middle" x="50.5" y="-109" font-family="Helvetica,sans-Serif" font-size="10.00">atop monitor</text>
</g>
<!-- monitor&#45;&gt;cam -->
<g id="edge9" class="edge">
<title>monitor:lo&#45;&gt;cam</title>
<path fill="none" stroke="#7b1fa2" stroke-width="1.8" d="M101.5,-216C101.5,-192.38 65.2,-217.24 51.5,-198 38.45,-179.67 41.51,-152.5 45.53,-135.02"/>
<text text-anchor="middle" x="65.5" y="-190.8" font-family="Helvetica,sans-Serif" font-size="9.00">direct</text>
<text text-anchor="middle" x="65.5" y="-180.8" font-family="Helvetica,sans-Serif" font-size="9.00">USB&#45;A</text>
</g>
<!-- kvm -->
<g id="node2" class="node">
<title>kvm</title>
<path fill="none" stroke="black" d="M249.5,-245C249.5,-245 463.5,-245 463.5,-245 469.5,-245 475.5,-251 475.5,-257 475.5,-257 475.5,-366 475.5,-366 475.5,-372 469.5,-378 463.5,-378 463.5,-378 249.5,-378 249.5,-378 243.5,-378 237.5,-372 237.5,-366 237.5,-366 237.5,-257 237.5,-257 237.5,-251 243.5,-245 249.5,-245"/>
<text text-anchor="middle" x="356.5" y="-366" font-family="Helvetica,sans-Serif" font-size="10.00">Sabrent SB&#45;TB4K — TB4 KVM · on top of atlas</text>
<polyline fill="none" stroke="black" points="237.5,-359 475.5,-359 "/>
<text text-anchor="middle" x="302" y="-347" font-family="Helvetica,sans-Serif" font-size="10.00">power in</text>
<polyline fill="none" stroke="black" points="237.5,-340 366.5,-340 "/>
<text text-anchor="middle" x="302" y="-328" font-family="Helvetica,sans-Serif" font-size="10.00">downstream TB4 A</text>
<polyline fill="none" stroke="black" points="237.5,-321 366.5,-321 "/>
<text text-anchor="middle" x="302" y="-309" font-family="Helvetica,sans-Serif" font-size="10.00">downstream TB4 B</text>
<polyline fill="none" stroke="black" points="237.5,-302 366.5,-302 "/>
<text text-anchor="middle" x="302" y="-290" font-family="Helvetica,sans-Serif" font-size="10.00">downstream TB4 C</text>
<polyline fill="none" stroke="black" points="237.5,-283 366.5,-283 "/>
<text text-anchor="middle" x="302" y="-271" font-family="Helvetica,sans-Serif" font-size="10.00">USB&#45;A 1</text>
<polyline fill="none" stroke="black" points="237.5,-264 366.5,-264 "/>
<text text-anchor="middle" x="302" y="-252" font-family="Helvetica,sans-Serif" font-size="10.00">USB&#45;A 2</text>
<polyline fill="none" stroke="black" points="366.5,-245 366.5,-359 "/>
<text text-anchor="middle" x="421" y="-342.5" font-family="Helvetica,sans-Serif" font-size="10.00">host PC1 (TB4)</text>
<polyline fill="none" stroke="black" points="366.5,-331 475.5,-331 "/>
<text text-anchor="middle" x="421" y="-314" font-family="Helvetica,sans-Serif" font-size="10.00">host PC2 (TB4)</text>
<polyline fill="none" stroke="black" points="366.5,-302 475.5,-302 "/>
<text text-anchor="middle" x="421" y="-285.5" font-family="Helvetica,sans-Serif" font-size="10.00">USB&#45;A 3</text>
<polyline fill="none" stroke="black" points="366.5,-274 475.5,-274 "/>
<text text-anchor="middle" x="421" y="-257" font-family="Helvetica,sans-Serif" font-size="10.00">USB&#45;A 4</text>
</g>
<!-- kvm&#45;&gt;g_backright -->
<g id="edge4" class="edge">
<title>kvm:ds_a&#45;&gt;g_backright</title>
<path fill="none" stroke="#1976d2" stroke-width="1.8" d="M236.5,-330.5C210.46,-330.5 217.5,-241.34 211.5,-216 207.05,-197.2 201.81,-176.47 197.28,-158.93"/>
<text text-anchor="middle" x="244" y="-190.8" font-family="Helvetica,sans-Serif" font-size="9.00">Silkland</text>
<text text-anchor="middle" x="244" y="-180.8" font-family="Helvetica,sans-Serif" font-size="9.00">40 Gb/s · 200 W</text>
</g>
<!-- hub -->
<g id="node9" class="node">
<title>hub</title>
<path fill="none" stroke="black" d="M265.5,-99C265.5,-99 369.5,-99 369.5,-99 375.5,-99 381.5,-105 381.5,-111 381.5,-111 381.5,-123 381.5,-123 381.5,-129 375.5,-135 369.5,-135 369.5,-135 265.5,-135 265.5,-135 259.5,-135 253.5,-129 253.5,-123 253.5,-123 253.5,-111 253.5,-111 253.5,-105 259.5,-99 265.5,-99"/>
<text text-anchor="middle" x="317.5" y="-114.5" font-family="Helvetica,sans-Serif" font-size="10.00">Under&#45;desk USB&#45;A hub</text>
</g>
<!-- kvm&#45;&gt;hub -->
<g id="edge6" class="edge">
<title>kvm:usba1&#45;&gt;hub</title>
<path fill="none" stroke="#f57c00" stroke-width="1.8" d="M236.5,-273.5C223.6,-273.5 231.72,-256.03 237.5,-244.5 252.31,-214.96 277.35,-225.61 295.5,-198 308.16,-178.74 313.59,-152.31 315.88,-135.19"/>
<text text-anchor="middle" x="318.5" y="-190.8" font-family="Helvetica,sans-Serif" font-size="9.00">direct</text>
<text text-anchor="middle" x="318.5" y="-180.8" font-family="Helvetica,sans-Serif" font-size="9.00">USB&#45;A</text>
</g>
<!-- atlas -->
<g id="node3" class="node">
<title>atlas</title>
<path fill="none" stroke="black" d="M263,-477.5C263,-477.5 442,-477.5 442,-477.5 448,-477.5 454,-483.5 454,-489.5 454,-489.5 454,-522.5 454,-522.5 454,-528.5 448,-534.5 442,-534.5 442,-534.5 263,-534.5 263,-534.5 257,-534.5 251,-528.5 251,-522.5 251,-522.5 251,-489.5 251,-489.5 251,-483.5 257,-477.5 263,-477.5"/>
<text text-anchor="middle" x="352.5" y="-522.5" font-family="Helvetica,sans-Serif" font-size="10.00">atlas — Proxmox tower · 2× RTX 5090</text>
<polyline fill="none" stroke="black" points="251,-515.5 454,-515.5 "/>
<text text-anchor="middle" x="352.5" y="-503.5" font-family="Helvetica,sans-Serif" font-size="10.00">mobo TB4 · top</text>
<polyline fill="none" stroke="black" points="251,-496.5 454,-496.5 "/>
<text text-anchor="middle" x="352.5" y="-484.5" font-family="Helvetica,sans-Serif" font-size="10.00">mobo TB4 · middle</text>
</g>
<!-- atlas&#45;&gt;kvm -->
<g id="edge1" class="edge">
<title>atlas:tb_top&#45;&gt;kvm:pc1</title>
<path fill="none" stroke="#333333" stroke-width="1.8" d="M455.5,-506C468.4,-506 461.82,-487.62 454.5,-477 433.7,-446.82 398.77,-475.53 378.5,-445 373.58,-437.59 373.76,-432.52 378.5,-425 403.97,-384.54 449.42,-418.57 475.5,-378.5 483.5,-366.2 491.17,-345.5 476.5,-345.5"/>
<text text-anchor="middle" x="427" y="-437.8" font-family="Helvetica,sans-Serif" font-size="9.00">Sabrent tag &#39;4&#39;</text>
<text text-anchor="middle" x="427" y="-427.8" font-family="Helvetica,sans-Serif" font-size="9.00">TB&#45;class USB&#45;C, short</text>
</g>
<!-- laptop -->
<g id="node4" class="node">
<title>laptop</title>
<path fill="none" stroke="black" d="M443,-595.5C443,-595.5 588,-595.5 588,-595.5 594,-595.5 600,-601.5 600,-607.5 600,-607.5 600,-619.5 600,-619.5 600,-625.5 594,-631.5 588,-631.5 588,-631.5 443,-631.5 443,-631.5 437,-631.5 431,-625.5 431,-619.5 431,-619.5 431,-607.5 431,-607.5 431,-601.5 437,-595.5 443,-595.5"/>
<text text-anchor="middle" x="515.5" y="-611" font-family="Helvetica,sans-Serif" font-size="10.00">Laptop slot — currently: rugged</text>
</g>
<!-- g_drawer -->
<g id="node6" class="node">
<title>g_drawer</title>
<ellipse fill="none" stroke="black" stroke-dasharray="5,2" cx="515.5" cy="-506" rx="43" ry="43"/>
<text text-anchor="middle" x="515.5" y="-508.8" font-family="Helvetica,sans-Serif" font-size="9.00">drawer</text>
<text text-anchor="middle" x="515.5" y="-498.8" font-family="Helvetica,sans-Serif" font-size="9.00">grommet</text>
</g>
<!-- laptop&#45;&gt;g_drawer -->
<g id="edge2" class="edge">
<title>laptop&#45;&gt;g_drawer</title>
<path fill="none" stroke="#c62828" stroke-width="1.8" d="M515.5,-595.08C515.5,-582.55 515.5,-565.11 515.5,-549.05"/>
<text text-anchor="middle" x="561" y="-569.8" font-family="Helvetica,sans-Serif" font-size="9.00">USB 3.2 20 Gb/s 8K</text>
</g>
<!-- g_backright&#45;&gt;monitor -->
<g id="edge5" class="edge">
<title>g_backright&#45;&gt;monitor:usbc</title>
<path fill="none" stroke="#1976d2" stroke-width="1.8" d="M193.77,-159.48C198.32,-185.54 203.36,-214.5 203.5,-216 206.26,-245.43 234.06,-282.5 204.5,-282.5"/>
</g>
<!-- kbd -->
<g id="node8" class="node">
<title>kbd</title>
<path fill="none" stroke="black" d="M165.5,-0.5C165.5,-0.5 207.5,-0.5 207.5,-0.5 213.5,-0.5 219.5,-6.5 219.5,-12.5 219.5,-12.5 219.5,-24.5 219.5,-24.5 219.5,-30.5 213.5,-36.5 207.5,-36.5 207.5,-36.5 165.5,-36.5 165.5,-36.5 159.5,-36.5 153.5,-30.5 153.5,-24.5 153.5,-24.5 153.5,-12.5 153.5,-12.5 153.5,-6.5 159.5,-0.5 165.5,-0.5"/>
<text text-anchor="middle" x="186.5" y="-21.5" font-family="Helvetica,sans-Serif" font-size="10.00">TEX Shura</text>
<text text-anchor="middle" x="186.5" y="-10.5" font-family="Helvetica,sans-Serif" font-size="10.00">keyboard</text>
</g>
<!-- g_backright&#45;&gt;kbd -->
<g id="edge8" class="edge">
<title>g_backright&#45;&gt;kbd</title>
<path fill="none" stroke="#388e3c" stroke-width="1.8" d="M186.5,-73.95C186.5,-60.95 186.5,-47.34 186.5,-36.98"/>
</g>
<!-- g_drawer&#45;&gt;kvm -->
<g id="edge3" class="edge">
<title>g_drawer&#45;&gt;kvm:pc2</title>
<path fill="none" stroke="#c62828" stroke-width="1.8" d="M523.34,-463.63C531.58,-408.14 536.15,-316.5 476.5,-316.5"/>
</g>
</g>
</svg>
