<?xml version="1.0" encoding="UTF-8" standalone="no"?>
<!DOCTYPE svg PUBLIC "-//W3C//DTD SVG 1.1//EN"
 "http://www.w3.org/Graphics/SVG/1.1/DTD/svg11.dtd">
<!-- Generated by graphviz version 2.43.0 (0)
 -->
<!-- Title: desk_wiring Pages: 1 -->
<svg width="628pt" height="733pt"
 viewBox="0.00 0.00 628.04 733.00" xmlns="http://www.w3.org/2000/svg" xmlns:xlink="http://www.w3.org/1999/xlink">
<g id="graph0" class="graph" transform="scale(1 1) rotate(0) translate(4 729)">
<title>desk_wiring</title>
<polygon fill="white" stroke="transparent" points="-4,4 -4,-729 624.04,-729 624.04,4 -4,4"/>
<!-- monitor -->
<g id="node1" class="node">
<title>monitor</title>
<path fill="none" stroke="black" d="M64.54,-267.5C64.54,-267.5 243.54,-267.5 243.54,-267.5 249.54,-267.5 255.54,-273.5 255.54,-279.5 255.54,-279.5 255.54,-445.5 255.54,-445.5 255.54,-451.5 249.54,-457.5 243.54,-457.5 243.54,-457.5 64.54,-457.5 64.54,-457.5 58.54,-457.5 52.54,-451.5 52.54,-445.5 52.54,-445.5 52.54,-279.5 52.54,-279.5 52.54,-273.5 58.54,-267.5 64.54,-267.5"/>
<text text-anchor="middle" x="154.04" y="-445.5" font-family="Helvetica,sans-Serif" font-size="10.00">AORUS FV43U — 43″ 4K@144 monitor</text>
<polyline fill="none" stroke="black" points="52.54,-438.5 255.54,-438.5 "/>
<text text-anchor="middle" x="154.04" y="-426.5" font-family="Helvetica,sans-Serif" font-size="10.00">optical S/PDIF out</text>
<polyline fill="none" stroke="black" points="52.54,-419.5 255.54,-419.5 "/>
<text text-anchor="middle" x="154.04" y="-407.5" font-family="Helvetica,sans-Serif" font-size="10.00">3.5 mm audio jack</text>
<polyline fill="none" stroke="black" points="52.54,-400.5 255.54,-400.5 "/>
<text text-anchor="middle" x="154.04" y="-388.5" font-family="Helvetica,sans-Serif" font-size="10.00">HDMI 2.1 · #1</text>
<polyline fill="none" stroke="black" points="52.54,-381.5 255.54,-381.5 "/>
<text text-anchor="middle" x="154.04" y="-369.5" font-family="Helvetica,sans-Serif" font-size="10.00">HDMI 2.1 · #2</text>
<polyline fill="none" stroke="black" points="52.54,-362.5 255.54,-362.5 "/>
<text text-anchor="middle" x="154.04" y="-350.5" font-family="Helvetica,sans-Serif" font-size="10.00">DP 1.4</text>
<polyline fill="none" stroke="black" points="52.54,-343.5 255.54,-343.5 "/>
<text text-anchor="middle" x="154.04" y="-331.5" font-family="Helvetica,sans-Serif" font-size="10.00">USB&#45;C in — video + hub + PD</text>
<polyline fill="none" stroke="black" points="52.54,-324.5 255.54,-324.5 "/>
<text text-anchor="middle" x="154.04" y="-312.5" font-family="Helvetica,sans-Serif" font-size="10.00">USB&#45;B uplink</text>
<polyline fill="none" stroke="black" points="52.54,-305.5 255.54,-305.5 "/>
<text text-anchor="middle" x="154.04" y="-293.5" font-family="Helvetica,sans-Serif" font-size="10.00">USB&#45;A upper</text>
<polyline fill="none" stroke="black" points="52.54,-286.5 255.54,-286.5 "/>
<text text-anchor="middle" x="154.04" y="-274.5" font-family="Helvetica,sans-Serif" font-size="10.00">USB&#45;A lower</text>
</g>
<!-- g_backright -->
<g id="node5" class="node">
<title>g_backright</title>
<ellipse fill="none" stroke="black" stroke-dasharray="5,2" cx="184.04" cy="-152" rx="43" ry="43"/>
<text text-anchor="middle" x="184.04" y="-154.8" font-family="Helvetica,sans-Serif" font-size="9.00">back&#45;right</text>
<text text-anchor="middle" x="184.04" y="-144.8" font-family="Helvetica,sans-Serif" font-size="9.00">grommet</text>
</g>
<!-- monitor&#45;&gt;g_backright -->
<g id="edge7" class="edge">
<title>monitor:hi&#45;&gt;g_backright</title>
<path fill="none" stroke="#388e3c" stroke-width="1.8" d="M257.04,-295.5C306.79,-295.5 251.28,-225.83 213.38,-183.92"/>
<text text-anchor="middle" x="233.08" y="-258.23" font-family="Helvetica,sans-Serif" font-size="9.00">USB&#45;A → USB&#45;C</text>
</g>
<!-- cam -->
<g id="node7" class="node">
<title>cam</title>
<path fill="none" stroke="black" d="M22.54,-134C22.54,-134 85.54,-134 85.54,-134 91.54,-134 97.54,-140 97.54,-146 97.54,-146 97.54,-158 97.54,-158 97.54,-164 91.54,-170 85.54,-170 85.54,-170 22.54,-170 22.54,-170 16.54,-170 10.54,-164 10.54,-158 10.54,-158 10.54,-146 10.54,-146 10.54,-140 16.54,-134 22.54,-134"/>
<text text-anchor="middle" x="54.04" y="-155" font-family="Helvetica,sans-Serif" font-size="10.00">USB&#45;A camera</text>
<text text-anchor="middle" x="54.04" y="-144" font-family="Helvetica,sans-Serif" font-size="10.00">atop monitor</text>
</g>
<!-- monitor&#45;&gt;cam -->
<g id="edge9" class="edge">
<title>monitor:lo&#45;&gt;cam</title>
<path fill="none" stroke="#7b1fa2" stroke-width="1.8" d="M51.04,-276.5C9,-276.5 33.09,-204.11 46.69,-170.17"/>
<text text-anchor="middle" x="14" y="-248.86" font-family="Helvetica,sans-Serif" font-size="9.00">direct</text>
<text text-anchor="middle" x="14" y="-238.86" font-family="Helvetica,sans-Serif" font-size="9.00">USB&#45;A</text>
</g>
<!-- kvm -->
<g id="node2" class="node">
<title>kvm</title>
<path fill="none" stroke="black" d="M311.04,-296C311.04,-296 525.04,-296 525.04,-296 531.04,-296 537.04,-302 537.04,-308 537.04,-308 537.04,-417 537.04,-417 537.04,-423 531.04,-429 525.04,-429 525.04,-429 311.04,-429 311.04,-429 305.04,-429 299.04,-423 299.04,-417 299.04,-417 299.04,-308 299.04,-308 299.04,-302 305.04,-296 311.04,-296"/>
<text text-anchor="middle" x="418.04" y="-417" font-family="Helvetica,sans-Serif" font-size="10.00">Sabrent SB&#45;TB4K — TB4 KVM · on top of atlas</text>
<polyline fill="none" stroke="black" points="299.04,-410 537.04,-410 "/>
<text text-anchor="middle" x="363.54" y="-398" font-family="Helvetica,sans-Serif" font-size="10.00">power in</text>
<polyline fill="none" stroke="black" points="299.04,-391 428.04,-391 "/>
<text text-anchor="middle" x="363.54" y="-379" font-family="Helvetica,sans-Serif" font-size="10.00">downstream TB4 A</text>
<polyline fill="none" stroke="black" points="299.04,-372 428.04,-372 "/>
<text text-anchor="middle" x="363.54" y="-360" font-family="Helvetica,sans-Serif" font-size="10.00">downstream TB4 B</text>
<polyline fill="none" stroke="black" points="299.04,-353 428.04,-353 "/>
<text text-anchor="middle" x="363.54" y="-341" font-family="Helvetica,sans-Serif" font-size="10.00">downstream TB4 C</text>
<polyline fill="none" stroke="black" points="299.04,-334 428.04,-334 "/>
<text text-anchor="middle" x="363.54" y="-322" font-family="Helvetica,sans-Serif" font-size="10.00">USB&#45;A 1</text>
<polyline fill="none" stroke="black" points="299.04,-315 428.04,-315 "/>
<text text-anchor="middle" x="363.54" y="-303" font-family="Helvetica,sans-Serif" font-size="10.00">USB&#45;A 2</text>
<polyline fill="none" stroke="black" points="428.04,-296 428.04,-410 "/>
<text text-anchor="middle" x="482.54" y="-393.5" font-family="Helvetica,sans-Serif" font-size="10.00">host PC1 (TB4)</text>
<polyline fill="none" stroke="black" points="428.04,-382 537.04,-382 "/>
<text text-anchor="middle" x="482.54" y="-365" font-family="Helvetica,sans-Serif" font-size="10.00">host PC2 (TB4)</text>
<polyline fill="none" stroke="black" points="428.04,-353 537.04,-353 "/>
<text text-anchor="middle" x="482.54" y="-336.5" font-family="Helvetica,sans-Serif" font-size="10.00">USB&#45;A 3</text>
<polyline fill="none" stroke="black" points="428.04,-325 537.04,-325 "/>
<text text-anchor="middle" x="482.54" y="-308" font-family="Helvetica,sans-Serif" font-size="10.00">USB&#45;A 4</text>
</g>
<!-- kvm&#45;&gt;g_backright -->
<g id="edge4" class="edge">
<title>kvm:ds_a&#45;&gt;g_backright</title>
<path fill="none" stroke="#1976d2" stroke-width="1.8" d="M298.04,-381.5C272.17,-381.5 287.89,-290.48 277.04,-267 262.14,-234.77 236.01,-203.93 215.23,-182.47"/>
<text text-anchor="middle" x="314.53" y="-279.78" font-family="Helvetica,sans-Serif" font-size="9.00">Silkland</text>
<text text-anchor="middle" x="314.53" y="-269.78" font-family="Helvetica,sans-Serif" font-size="9.00">40 Gb/s · 200 W</text>
</g>
<!-- hub -->
<g id="node9" class="node">
<title>hub</title>
<path fill="none" stroke="black" d="M311.04,-134C311.04,-134 415.04,-134 415.04,-134 421.04,-134 427.04,-140 427.04,-146 427.04,-146 427.04,-158 427.04,-158 427.04,-164 421.04,-170 415.04,-170 415.04,-170 311.04,-170 311.04,-170 305.04,-170 299.04,-164 299.04,-158 299.04,-158 299.04,-146 299.04,-146 299.04,-140 305.04,-134 311.04,-134"/>
<text text-anchor="middle" x="363.04" y="-149.5" font-family="Helvetica,sans-Serif" font-size="10.00">Under&#45;desk USB&#45;A hub</text>
</g>
<!-- kvm&#45;&gt;hub -->
<g id="edge6" class="edge">
<title>kvm:usba1&#45;&gt;hub</title>
<path fill="none" stroke="#f57c00" stroke-width="1.8" d="M298.04,-324.5C265.24,-324.5 327.31,-213.45 352.81,-170.07"/>
<text text-anchor="middle" x="289.56" y="-256.35" font-family="Helvetica,sans-Serif" font-size="9.00">direct</text>
<text text-anchor="middle" x="289.56" y="-246.35" font-family="Helvetica,sans-Serif" font-size="9.00">USB&#45;A</text>
</g>
<!-- atlas -->
<g id="node3" class="node">
<title>atlas</title>
<path fill="none" stroke="black" d="M299.54,-544.5C299.54,-544.5 478.54,-544.5 478.54,-544.5 484.54,-544.5 490.54,-550.5 490.54,-556.5 490.54,-556.5 490.54,-589.5 490.54,-589.5 490.54,-595.5 484.54,-601.5 478.54,-601.5 478.54,-601.5 299.54,-601.5 299.54,-601.5 293.54,-601.5 287.54,-595.5 287.54,-589.5 287.54,-589.5 287.54,-556.5 287.54,-556.5 287.54,-550.5 293.54,-544.5 299.54,-544.5"/>
<text text-anchor="middle" x="389.04" y="-589.5" font-family="Helvetica,sans-Serif" font-size="10.00">atlas — Proxmox tower · 2× RTX 5090</text>
<polyline fill="none" stroke="black" points="287.54,-582.5 490.54,-582.5 "/>
<text text-anchor="middle" x="389.04" y="-570.5" font-family="Helvetica,sans-Serif" font-size="10.00">mobo TB4 · top</text>
<polyline fill="none" stroke="black" points="287.54,-563.5 490.54,-563.5 "/>
<text text-anchor="middle" x="389.04" y="-551.5" font-family="Helvetica,sans-Serif" font-size="10.00">mobo TB4 · middle</text>
</g>
<!-- atlas&#45;&gt;kvm -->
<g id="edge1" class="edge">
<title>atlas:tb_top&#45;&gt;kvm:pc1</title>
<path fill="none" stroke="#333333" stroke-width="1.8" d="M492.04,-573C500.39,-573 535.65,-437.74 537.04,-429.5 539.48,-415.03 552.71,-396.5 538.04,-396.5"/>
<text text-anchor="middle" x="473.59" y="-499.65" font-family="Helvetica,sans-Serif" font-size="9.00">Sabrent tag &#39;4&#39;</text>
<text text-anchor="middle" x="473.59" y="-489.65" font-family="Helvetica,sans-Serif" font-size="9.00">TB&#45;class USB&#45;C, short</text>
</g>
<!-- laptop -->
<g id="node4" class="node">
<title>laptop</title>
<path fill="none" stroke="black" d="M553.54,-688.5C553.54,-688.5 600.54,-688.5 600.54,-688.5 606.54,-688.5 612.54,-694.5 612.54,-700.5 612.54,-700.5 612.54,-712.5 612.54,-712.5 612.54,-718.5 606.54,-724.5 600.54,-724.5 600.54,-724.5 553.54,-724.5 553.54,-724.5 547.54,-724.5 541.54,-718.5 541.54,-712.5 541.54,-712.5 541.54,-700.5 541.54,-700.5 541.54,-694.5 547.54,-688.5 553.54,-688.5"/>
<text text-anchor="middle" x="577.04" y="-704" font-family="Helvetica,sans-Serif" font-size="10.00">Laptop slot</text>
</g>
<!-- g_drawer -->
<g id="node6" class="node">
<title>g_drawer</title>
<ellipse fill="none" stroke="black" stroke-dasharray="5,2" cx="577.04" cy="-573" rx="43" ry="43"/>
<text text-anchor="middle" x="577.04" y="-575.8" font-family="Helvetica,sans-Serif" font-size="9.00">drawer</text>
<text text-anchor="middle" x="577.04" y="-565.8" font-family="Helvetica,sans-Serif" font-size="9.00">grommet</text>
</g>
<!-- laptop&#45;&gt;g_drawer -->
<g id="edge2" class="edge">
<title>laptop&#45;&gt;g_drawer</title>
<path fill="none" stroke="#c62828" stroke-width="1.8" d="M577.04,-688.31C577.04,-670.07 577.04,-640.56 577.04,-616.1"/>
<text text-anchor="middle" x="531.54" y="-657.34" font-family="Helvetica,sans-Serif" font-size="9.00">USB 3.2 20 Gb/s 8K</text>
</g>
<!-- g_backright&#45;&gt;monitor -->
<g id="edge5" class="edge">
<title>g_backright&#45;&gt;monitor:usbc</title>
<path fill="none" stroke="#1976d2" stroke-width="1.8" d="M211.41,-185.51C227.78,-207.11 247.09,-236.93 256.04,-267 264.47,-295.33 286.6,-333.5 257.04,-333.5"/>
</g>
<!-- kbd -->
<g id="node8" class="node">
<title>kbd</title>
<path fill="none" stroke="black" d="M163.04,-0.5C163.04,-0.5 205.04,-0.5 205.04,-0.5 211.04,-0.5 217.04,-6.5 217.04,-12.5 217.04,-12.5 217.04,-24.5 217.04,-24.5 217.04,-30.5 211.04,-36.5 205.04,-36.5 205.04,-36.5 163.04,-36.5 163.04,-36.5 157.04,-36.5 151.04,-30.5 151.04,-24.5 151.04,-24.5 151.04,-12.5 151.04,-12.5 151.04,-6.5 157.04,-0.5 163.04,-0.5"/>
<text text-anchor="middle" x="184.04" y="-21.5" font-family="Helvetica,sans-Serif" font-size="10.00">TEX Shura</text>
<text text-anchor="middle" x="184.04" y="-10.5" font-family="Helvetica,sans-Serif" font-size="10.00">keyboard</text>
</g>
<!-- g_backright&#45;&gt;kbd -->
<g id="edge8" class="edge">
<title>g_backright&#45;&gt;kbd</title>
<path fill="none" stroke="#388e3c" stroke-width="1.8" d="M184.04,-108.67C184.04,-84.19 184.04,-54.74 184.04,-36.56"/>
</g>
<!-- g_drawer&#45;&gt;kvm -->
<g id="edge3" class="edge">
<title>g_drawer&#45;&gt;kvm:pc2</title>
<path fill="none" stroke="#c62828" stroke-width="1.8" d="M585.63,-530.62C595.78,-470.86 603.82,-367.5 538.04,-367.5"/>
</g>
</g>
</svg>
