<?xml version='1.0' encoding='UTF-8' standalone='no'?>
<svg baseProfile="tiny" height="210mm" version="1.2" viewBox="0 0 2970 2100" width="297mm" xmlns="http://www.w3.org/2000/svg" xmlns:cc="http://creativecommons.org/ns#" xmlns:dc="http://purl.org/dc/elements/1.1/" xmlns:freecad="https://www.freecad.org/wiki/index.php?title=Svg_Namespace" xmlns:inkscape="http://www.inkscape.org/namespaces/inkscape" xmlns:rdf="http://www.w3.org/1999/02/22-rdf-syntax-ns#" xmlns:sodipodi="http://sodipodi.sourceforge.net/DTD/sodipodi-0.dtd" xmlns:svg="http://www.w3.org/2000/svg" xmlns:xlink="http://www.w3.org/1999/xlink">
 <title>FreeCAD SVG Export</title>
 <desc>Drawing page: Page exported from FreeCAD document: bracket</desc>
 <defs/>
 <g id="Page" inkscape:groupmode="layer" inkscape:label="TechDraw">
  <g id="A4_Landscape_blank.svg" style="stroke: none;" transform="scale(10.000000, 10.000000)">
   <metadata id="metadata8">
    <rdf:RDF>
     <cc:Work rdf:about="">
      <dc:format>image/svg+xml</dc:format>
      <dc:type rdf:resource="http://purl.org/dc/dcmitype/StillImage"/>
     </cc:Work>
    </rdf:RDF>
   </metadata>
  </g>
  <g fill="none" fill-rule="evenodd" id="DrawingContent" stroke="black" stroke-linecap="square" stroke-linejoin="bevel" stroke-width="1">
   <g fill="#ffffff" fill-opacity="1" font-family="Sans Serif" font-size="31.75" font-style="normal" font-weight="400" stroke="none" transform="matrix(1,0,0,1,1500,900)">
    <path d="M600,248.446 L600,-431.554 C600,-497.829 546.274,-551.554 480,-551.554 L-480,-551.554 C-546.274,-551.554 -600,-497.829 -600,-431.554 L-600,248.446 L0,248.446 L175,551.554 L175,248.446 L600,248.446" fill-rule="evenodd" vector-effect="non-scaling-stroke"/>
   </g>
   <g fill="#ffffff" fill-opacity="1" font-family="Sans Serif" font-size="31.75" font-style="normal" font-weight="400" stroke="none" transform="matrix(1,0,0,1,1500,900)">
    <path d="M80,-151.554 C80,-107.372 44.1828,-71.5544 0,-71.5544 C-44.1828,-71.5544 -80,-107.372 -80,-151.554 C-80,-195.737 -44.1828,-231.554 0,-231.554 C44.1828,-231.554 80,-195.737 80,-151.554 " fill-rule="evenodd" vector-effect="non-scaling-stroke"/>
   </g>
   <g fill="none" font-family="Sans Serif" font-size="31.75" font-style="normal" font-weight="400" stroke="#212529" stroke-linecap="round" stroke-linejoin="bevel" stroke-opacity="1" stroke-width="7" transform="matrix(1,0,0,1,1500,900)">
    <path d="M-600,248.446 L0,248.446" fill-rule="evenodd" vector-effect="none"/>
   </g>
   <g fill="none" font-family="Sans Serif" font-size="31.75" font-style="normal" font-weight="400" stroke="#212529" stroke-linecap="round" stroke-linejoin="bevel" stroke-opacity="1" stroke-width="7" transform="matrix(1,0,0,1,1500,900)">
    <path d="M-600,-431.554 L-600,248.446" fill-rule="evenodd" vector-effect="none"/>
   </g>
   <g fill="none" font-family="Sans Serif" font-size="31.75" font-style="normal" font-weight="400" stroke="#212529" stroke-linecap="round" stroke-linejoin="bevel" stroke-opacity="1" stroke-width="7" transform="matrix(1,0,0,1,1500,900)">
    <path d="M0,248.446 L175,551.554" fill-rule="evenodd" vector-effect="none"/>
   </g>
   <g fill="none" font-family="Sans Serif" font-size="31.75" font-style="normal" font-weight="400" stroke="#212529" stroke-linecap="round" stroke-linejoin="bevel" stroke-opacity="1" stroke-width="7" transform="matrix(1,0,0,1,1500,900)">
    <path d="M-480,-551.554 C-546.274,-551.554 -600,-497.829 -600,-431.554 " fill-rule="evenodd" vector-effect="none"/>
   </g>
   <g fill="none" font-family="Sans Serif" font-size="31.75" font-style="normal" font-weight="400" stroke="#212529" stroke-linecap="round" stroke-linejoin="bevel" stroke-opacity="1" stroke-width="7" transform="matrix(1,0,0,1,1500,900)">
    <path d="M175,551.554 L175,248.446" fill-rule="evenodd" vector-effect="none"/>
   </g>
   <g fill="none" font-family="Sans Serif" font-size="31.75" font-style="normal" font-weight="400" stroke="#212529" stroke-linecap="round" stroke-linejoin="bevel" stroke-opacity="1" stroke-width="7" transform="matrix(1,0,0,1,1500,900)">
    <path d="M480,-551.554 L-480,-551.554" fill-rule="evenodd" vector-effect="none"/>
   </g>
   <g fill="none" font-family="Sans Serif" font-size="31.75" font-style="normal" font-weight="400" stroke="#212529" stroke-linecap="round" stroke-linejoin="bevel" stroke-opacity="1" stroke-width="7" transform="matrix(1,0,0,1,1500,900)">
    <path d="M175,248.446 L600,248.446" fill-rule="evenodd" vector-effect="none"/>
   </g>
   <g fill="none" font-family="Sans Serif" font-size="31.75" font-style="normal" font-weight="400" stroke="#212529" stroke-linecap="round" stroke-linejoin="bevel" stroke-opacity="1" stroke-width="7" transform="matrix(1,0,0,1,1500,900)">
    <path d="M600,-431.554 C600,-497.829 546.274,-551.554 480,-551.554 " fill-rule="evenodd" vector-effect="none"/>
   </g>
   <g fill="none" font-family="Sans Serif" font-size="31.75" font-style="normal" font-weight="400" stroke="#212529" stroke-linecap="round" stroke-linejoin="bevel" stroke-opacity="1" stroke-width="7" transform="matrix(1,0,0,1,1500,900)">
    <path d="M600,248.446 L600,-431.554" fill-rule="evenodd" vector-effect="none"/>
   </g>
   <g fill="none" font-family="Sans Serif" font-size="31.75" font-style="normal" font-weight="400" stroke="#212529" stroke-linecap="round" stroke-linejoin="bevel" stroke-opacity="1" stroke-width="7" transform="matrix(1,0,0,1,1500,900)">
    <path d="M80,-151.554 C80,-107.372 44.1828,-71.5544 0,-71.5544 C-44.1828,-71.5544 -80,-107.372 -80,-151.554 C-80,-195.737 -44.1828,-231.554 0,-231.554 C44.1828,-231.554 80,-195.737 80,-151.554 " fill-rule="evenodd" vector-effect="none"/>
   </g>
   <g fill="none" font-family="Sans Serif" font-size="31.75" font-style="normal" font-weight="400" stroke="#212529" stroke-linecap="square" stroke-linejoin="bevel" stroke-opacity="1" stroke-width="1" transform="matrix(1,0,0,1,1453.27,1564.99)">
    <text fill="#212529" fill-opacity="1" font-family="osifont" font-size="67" font-style="normal" font-weight="400" stroke="none" x="4" xml:space="preserve" y="92.2344">120</text>
   </g>
   <g fill="none" font-family="Sans Serif" font-size="31.75" font-style="normal" font-weight="400" stroke="#212529" stroke-linecap="round" stroke-linejoin="bevel" stroke-opacity="1" stroke-width="3.5" transform="matrix(1,0,0,1,1500,900)">
    <path d="M-600,780.492 L600,780.492 M600,731.554 L600,808.492 M-600,731.554 L-600,808.492" fill-rule="evenodd" vector-effect="none"/>
   </g>
   <g fill="#212529" fill-opacity="1" font-family="Sans Serif" font-size="31.75" font-style="normal" font-weight="400" stroke="#212529" stroke-linecap="round" stroke-linejoin="bevel" stroke-opacity="1" stroke-width="3.5" transform="matrix(1,0,0,1,2100,1680.49)">
    <path d="M0,0 L-35,-5.83333 L-35,5.83333 L0,0" fill-rule="evenodd" vector-effect="none"/>
   </g>
   <g fill="#212529" fill-opacity="1" font-family="Sans Serif" font-size="31.75" font-style="normal" font-weight="400" stroke="#212529" stroke-linecap="round" stroke-linejoin="bevel" stroke-opacity="1" stroke-width="3.5" transform="matrix(1,0,0,1,900,1680.49)">
    <path d="M0,0 L35,5.83333 L35,-5.83333 L0,0" fill-rule="evenodd" vector-effect="none"/>
   </g>
   <g fill="none" font-family="Sans Serif" font-size="31.75" font-style="normal" font-weight="400" stroke="#212529" stroke-linecap="square" stroke-linejoin="bevel" stroke-opacity="1" stroke-width="1" transform="matrix(0,-1,1,0,553.438,785.383)">
    <text fill="#212529" fill-opacity="1" font-family="osifont" font-size="67" font-style="normal" font-weight="400" stroke="none" x="4" xml:space="preserve" y="92.2344">80</text>
   </g>
   <g fill="none" font-family="Sans Serif" font-size="31.75" font-style="normal" font-weight="400" stroke="#212529" stroke-linecap="round" stroke-linejoin="bevel" stroke-opacity="1" stroke-width="3.5" transform="matrix(1,0,0,1,1500,900)">
    <path d="M-831.063,248.446 L-831.063,-551.554 M-780,-551.554 L-859.063,-551.554 M-780,248.446 L-859.063,248.446" fill-rule="evenodd" vector-effect="none"/>
   </g>
   <g fill="#212529" fill-opacity="1" font-family="Sans Serif" font-size="31.75" font-style="normal" font-weight="400" stroke="#212529" stroke-linecap="round" stroke-linejoin="bevel" stroke-opacity="1" stroke-width="3.5" transform="matrix(1,0,0,1,668.938,348.446)">
    <path d="M0,0 L-5.83333,35 L5.83333,35 L0,0" fill-rule="evenodd" vector-effect="none"/>
   </g>
   <g fill="#212529" fill-opacity="1" font-family="Sans Serif" font-size="31.75" font-style="normal" font-weight="400" stroke="#212529" stroke-linecap="round" stroke-linejoin="bevel" stroke-opacity="1" stroke-width="3.5" transform="matrix(1,0,0,1,668.938,1148.45)">
    <path d="M0,0 L5.83333,-35 L-5.83333,-35 L0,0" fill-rule="evenodd" vector-effect="none"/>
   </g>
   <g fill="none" font-family="Sans Serif" font-size="31.75" font-style="normal" font-weight="400" stroke="#212529" stroke-linecap="square" stroke-linejoin="bevel" stroke-opacity="1" stroke-width="1" transform="matrix(0.851159,-0.524909,0.524909,0.851159,2052.54,288.011)">
    <text fill="#212529" fill-opacity="1" font-family="osifont" font-size="67" font-style="normal" font-weight="400" stroke="none" x="4" xml:space="preserve" y="92.2344">R12</text>
   </g>
   <g fill="none" font-family="Sans Serif" font-size="31.75" font-style="normal" font-weight="400" stroke="#212529" stroke-linecap="round" stroke-linejoin="bevel" stroke-opacity="1" stroke-width="3.5" transform="matrix(1,0,0,1,1500,900)">
    <path d="M480,-431.554 L709.078,-572.827" fill-rule="evenodd" vector-effect="none"/>
   </g>
   <g fill="#212529" fill-opacity="1" font-family="Sans Serif" font-size="31.75" font-style="normal" font-weight="400" stroke="#212529" stroke-linecap="round" stroke-linejoin="bevel" stroke-opacity="1" stroke-width="3.5" transform="matrix(1,0,0,1,2082.14,405.457)">
    <path d="M0,0 L32.8525,-13.4067 L26.7286,-23.3369 L0,0" fill-rule="evenodd" vector-effect="none"/>
   </g>
   <g fill="none" font-family="Sans Serif" font-size="31.75" font-style="normal" font-weight="400" stroke="#212529" stroke-linecap="square" stroke-linejoin="bevel" stroke-opacity="1" stroke-width="1" transform="matrix(0.977102,0.212772,-0.212772,0.977102,1704.92,674.861)">
    <text fill="#212529" fill-opacity="1" font-family="osifont" font-size="67" font-style="normal" font-weight="400" stroke="none" x="4" xml:space="preserve" y="92.2344">R8</text>
   </g>
   <g fill="none" font-family="Sans Serif" font-size="31.75" font-style="normal" font-weight="400" stroke="#212529" stroke-linecap="round" stroke-linejoin="bevel" stroke-opacity="1" stroke-width="3.5" transform="matrix(1,0,0,1,1500,900)">
    <path d="M0,-151.554 L270.965,-92.5495" fill-rule="evenodd" vector-effect="none"/>
   </g>
   <g fill="#212529" fill-opacity="1" font-family="Sans Serif" font-size="31.75" font-style="normal" font-weight="400" stroke="#212529" stroke-linecap="round" stroke-linejoin="bevel" stroke-opacity="1" stroke-width="3.5" transform="matrix(1,0,0,1,1578.17,765.467)">
    <path d="M0,0 L32.9574,13.1468 L35.4397,1.74725 L0,0" fill-rule="evenodd" vector-effect="none"/>
   </g>
   <g fill="none" font-family="Sans Serif" font-size="31.75" font-style="normal" font-weight="400" stroke="#212529" stroke-linecap="square" stroke-linejoin="bevel" stroke-opacity="1" stroke-width="1" transform="matrix(0.5,0.866025,-0.866025,0.5,1776.77,1284.9)">
    <text fill="#212529" fill-opacity="1" font-family="osifont" font-size="67" font-style="normal" font-weight="400" stroke="none" x="4" xml:space="preserve" y="92.2344">35</text>
   </g>
   <g fill="none" font-family="Sans Serif" font-size="31.75" font-style="normal" font-weight="400" stroke="#212529" stroke-linecap="round" stroke-linejoin="bevel" stroke-opacity="1" stroke-width="3.5" transform="matrix(1,0,0,1,1500,900)">
    <path d="M223.468,523.571 L48.4682,220.462 M0,248.446 L72.717,206.462 M175,551.554 L247.717,509.571" fill-rule="evenodd" vector-effect="none"/>
   </g>
   <g fill="#212529" fill-opacity="1" font-family="Sans Serif" font-size="31.75" font-style="normal" font-weight="400" stroke="#212529" stroke-linecap="round" stroke-linejoin="bevel" stroke-opacity="1" stroke-width="3.5" transform="matrix(1,0,0,1,1548.47,1120.46)">
    <path d="M0,0 L12.4482,33.2276 L22.5518,27.3942 L0,0" fill-rule="evenodd" vector-effect="none"/>
   </g>
   <g fill="#212529" fill-opacity="1" font-family="Sans Serif" font-size="31.75" font-style="normal" font-weight="400" stroke="#212529" stroke-linecap="round" stroke-linejoin="bevel" stroke-opacity="1" stroke-width="3.5" transform="matrix(1,0,0,1,1723.47,1423.57)">
    <path d="M0,0 L-12.4482,-33.2276 L-22.5518,-27.3942 L0,0" fill-rule="evenodd" vector-effect="none"/>
   </g>
   <g fill="none" font-family="Sans Serif" font-size="31.75" font-style="normal" font-weight="400" stroke="#212529" stroke-linecap="square" stroke-linejoin="bevel" stroke-opacity="1" stroke-width="1" transform="matrix(0.5547,0.83205,-0.83205,0.5547,1402.21,1141.76)">
    <text fill="#212529" fill-opacity="1" font-family="osifont" font-size="67" font-style="normal" font-weight="400" stroke="none" x="4" xml:space="preserve" y="92.2344">120°</text>
   </g>
   <g fill="none" font-family="Sans Serif" font-size="31.75" font-style="normal" font-weight="400" stroke="#212529" stroke-linecap="round" stroke-linejoin="bevel" stroke-opacity="1" stroke-width="3.5" transform="matrix(1,0,0,1,1500,900)">
    <path d="M-193.16,248.446 C-193.16,355.125 -106.679,441.605 -2.84217e-14,441.605 C35.1968,441.605 68.1948,432.191 96.6137,415.744 M175,551.554 L82.5798,391.478 M-600,248.446 L-165.16,248.446" fill-rule="evenodd" vector-effect="none"/>
   </g>
   <g fill="#212529" fill-opacity="1" font-family="Sans Serif" font-size="31.75" font-style="normal" font-weight="400" stroke="#212529" stroke-linecap="round" stroke-linejoin="bevel" stroke-opacity="1" stroke-width="3.5" transform="matrix(1,0,0,1,1596.58,1315.73)">
    <path d="M0,0 L-33.2276,12.4482 L-27.3942,22.5518 L0,0" fill-rule="evenodd" vector-effect="none"/>
   </g>
   <g fill="#212529" fill-opacity="1" font-family="Sans Serif" font-size="31.75" font-style="normal" font-weight="400" stroke="#212529" stroke-linecap="round" stroke-linejoin="bevel" stroke-opacity="1" stroke-width="3.5" transform="matrix(1,0,0,1,1306.84,1148.45)">
    <path d="M0,0 L-5.83333,35 L5.83333,35 L0,0" fill-rule="evenodd" vector-effect="none"/>
   </g>
   <g fill="none" font-family="Sans Serif" font-size="31.75" font-style="normal" font-weight="400" stroke="#212529" stroke-linecap="square" stroke-linejoin="bevel" stroke-opacity="1" stroke-width="1" transform="matrix(1,0,0,1,1196.38,1778.5)">
    <text fill="#212529" fill-opacity="1" font-family="osifont" font-size="81" font-style="normal" font-weight="400" stroke="none" x="4" xml:space="preserve" y="110.672">Mounting Bracket</text>
   </g>
   <g fill="none" font-family="Sans Serif" font-size="31.75" font-style="normal" font-weight="400" stroke="#000000" stroke-linecap="square" stroke-linejoin="bevel" stroke-opacity="1" stroke-width="1" transform="matrix(1,0,0,1,1196.38,1778.5)">
    <text fill="#000000" fill-opacity="1" font-family="Sans Serif" font-size="31.75" font-style="normal" font-weight="400" stroke="none" x="599.438" xml:space="preserve" y="110.672"/>
   </g>
   <g fill="none" font-family="Sans Serif" font-size="31.75" font-style="normal" font-weight="400" stroke="#212529" stroke-linecap="square" stroke-linejoin="bevel" stroke-opacity="1" stroke-width="1" transform="matrix(1,0,0,1,1266.27,1721.5)">
    <text fill="#212529" fill-opacity="1" font-family="osifont" font-size="53" font-style="normal" font-weight="400" stroke="none" x="4" xml:space="preserve" y="73.7969">Material: Steel, 3mm</text>
   </g>
   <g fill="none" font-family="Sans Serif" font-size="31.75" font-style="normal" font-weight="400" stroke="#000000" stroke-linecap="square" stroke-linejoin="bevel" stroke-opacity="1" stroke-width="1" transform="matrix(1,0,0,1,1266.27,1721.5)">
    <text fill="#000000" fill-opacity="1" font-family="Sans Serif" font-size="31.75" font-style="normal" font-weight="400" stroke="none" x="459.641" xml:space="preserve" y="73.7969"/>
   </g>
  </g>
 </g>
</svg>
