999
FreeCAD v0.21 33771 (Git)
  0
SECTION
  2
HEADER
  9
$ACADVER
  1
AC1014
  9
$ACADMAINTVER
 70
     9
  9
$DWGCODEPAGE
  3
ANSI_1252
  9
$TEXTSTYLE
  7
STANDARD
  9
$DIMSTYLE
  2
STANDARD
  9
$DIMTXSTY
  7
STANDARD
  9
$CMLSTYLE
  2
STANDARD
  9
$LUNITS
 70
2
  9
$INSUNITS
 70
4
  9
$PEXTMAX
 10
50
 20
50
 30
50
  9
$PEXTMIN
 10
0
 20
0
 30
0
  9
$HANDSEED
  5
FFFF
  0
ENDSEC
  0
SECTION
  2
CLASSES
  0
CLASS
  1
ACDBDICTIONARYWDFLT
  2
AcDbDictionaryWithDefault
  3
ObjectDBX Classes
 90
        0
280
     0
281
     0
  0
CLASS
  1
XRECORD
  2
AcDbXrecord
  3
ObjectDBX Classes
 90
        0
280
     0
281
     0
  0
CLASS
  1
LWPOLYLINE
  2
AcDbPolyline
  3
ObjectDBX Classes
 90
        0
280
     0
281
     1
  0
ENDSEC
  0
SECTION
  2
TABLES
  0
TABLE
  2
VPORT
  5
20
330
0
100
AcDbSymbolTable
 70
     1
  0
VPORT
  5
21
330
20
100
AcDbSymbolTableRecord
100
AcDbViewportTableRecord
  2
*ACTIVE
 70
     0
  0
ENDTAB
  0
TABLE
  2
LTYPE
  5
22
330
0
100
AcDbSymbolTable
 70
     1
  0
LTYPE
  5
23
330
21
100
AcDbSymbolTableRecord
100
AcDbLinetypeTableRecord
  2
BYBLOCK
 70
     0
  3

 72
    65
 73
     0
 40
0.0
  0
LTYPE
  5
24
330
21
100
AcDbSymbolTableRecord
100
AcDbLinetypeTableRecord
  2
BYLAYER
 70
     0
  3

 72
    65
 73
     0
 40
0.0
  0
LTYPE
  5
25
330
21
100
AcDbSymbolTableRecord
100
AcDbLinetypeTableRecord
  2
CONTINUOUS
 70
     0
  3
Solid line
 72
    65
 73
     0
 40
0.0
  0
ENDTAB
  0
TABLE
  2
LAYER
  5
A66
330
0
100
AcDbSymbolTable
 70
13
  0
LAYER
  5
A67
330
A66
100
AcDbSymbolTableRecord
100
AcDbLayerTableRecord
  2
0
 70
   0
 62
   7
  6
CONTINUOUS
  0
LAYER
  5
A68
330
A66
100
AcDbSymbolTableRecord
100
AcDbLayerTableRecord
  2
TopView
 70
    0
 62
    7
  6
CONTINUOUS
  0
LAYER
  5
A69
330
A66
100
AcDbSymbolTableRecord
100
AcDbLayerTableRecord
  2
Dimension
 70
    0
 62
    7
  6
CONTINUOUS
  0
LAYER
  5
A6A
330
A66
100
AcDbSymbolTableRecord
100
AcDbLayerTableRecord
  2
Dimension
 70
    0
 62
    7
  6
CONTINUOUS
  0
LAYER
  5
A6B
330
A66
100
AcDbSymbolTableRecord
100
AcDbLayerTableRecord
  2
Dimension001
 70
    0
 62
    7
  6
CONTINUOUS
  0
LAYER
  5
A6C
330
A66
100
AcDbSymbolTableRecord
100
AcDbLayerTableRecord
  2
Dimension001
 70
    0
 62
    7
  6
CONTINUOUS
  0
LAYER
  5
A6D
330
A66
100
AcDbSymbolTableRecord
100
AcDbLayerTableRecord
  2
FilletRadius
 70
    0
 62
    7
  6
CONTINUOUS
  0
LAYER
  5
A6E
330
A66
100
AcDbSymbolTableRecord
100
AcDbLayerTableRecord
  2
HoleRadius
 70
    0
 62
    7
  6
CONTINUOUS
  0
LAYER
  5
A6F
330
A66
100
AcDbSymbolTableRecord
100
AcDbLayerTableRecord
  2
Dimension002
 70
    0
 62
    7
  6
CONTINUOUS
  0
LAYER
  5
A70
330
A66
100
AcDbSymbolTableRecord
100
AcDbLayerTableRecord
  2
Dimension002
 70
    0
 62
    7
  6
CONTINUOUS
  0
LAYER
  5
A71
330
A66
100
AcDbSymbolTableRecord
100
AcDbLayerTableRecord
  2
TabAngle
 70
    0
 62
    7
  6
CONTINUOUS
  0
LAYER
  5
A72
330
A66
100
AcDbSymbolTableRecord
100
AcDbLayerTableRecord
  2
Title
 70
    0
 62
    7
  6
CONTINUOUS
  0
LAYER
  5
A73
330
A66
100
AcDbSymbolTableRecord
100
AcDbLayerTableRecord
  2
Material
 70
    0
 62
    7
  6
CONTINUOUS
  0
ENDTAB
  0
TABLE
  2
STYLE
  5
70
330
0
100
AcDbSymbolTable
 70
     2
  0
STYLE
  5
71
330
70
100
AcDbSymbolTableRecord
100
AcDbTextStyleTableRecord
  2
STANDARD
 70
     0
 40
0.0
 41
1.0
 50
0.0
 71
     0
 42
2.5
  3
arial.ttf
  4

  0
STYLE
  5
72
330
70
100
AcDbSymbolTableRecord
100
AcDbTextStyleTableRecord
  2
ANNOTATIVE
 70
     0
 40
0.0
 41
1.0
 50
0.0
 71
     0
 42
2.5
  3
arial.ttf
  4

  0
ENDTAB
  0
TABLE
  2
VIEW
  5
73
330
0
100
AcDbSymbolTable
 70
     0
  0
ENDTAB
  0
TABLE
  2
UCS
  5
74
330
0
100
AcDbSymbolTable
 70
     0
  0
ENDTAB
  0
TABLE
  2
APPID
  5
75
330
0
100
AcDbSymbolTable
 70
     2
  0
APPID
  5
76
330
75
100
AcDbSymbolTableRecord
100
AcDbRegAppTableRecord
  2
ACAD
 70
     0
  0
APPID
  5
77
330
75
100
AcDbSymbolTableRecord
100
AcDbRegAppTableRecord
  2
ACADANNOTATIVE
 70
     0
  0
ENDTAB
  0
TABLE
  2
DIMSTYLE
  5
78
330
0
100
AcDbSymbolTable
 70
     2
  0
DIMSTYLE
105
79
330
78
100
AcDbSymbolTableRecord
100
AcDbDimStyleTableRecord
  2
STANDARD
 70
     0
  3

  4

  5

  6

  7

 40
0.0
 41
2.5
 42
0.625
 43
3.75
 44
1.25
 45
0.0
 46
0.0
 47
0.0
 48
0.0
140
2.5
141
2.5
142
0.0
143
0.03937007874016
144
1.0
145
0.0
146
1.0
147
0.625
 71
     0
 72
     0
 73
     0
 74
     0
 75
     0
 76
     0
 77
     1
 78
     8
170
     0
171
     3
172
     1
173
     0
174
     0
175
     0
176
     0
177
     0
178
     0
270
     2
271
     2
272
     2
273
     2
274
     3
340
71
275
     0
280
     0
281
     0
282
     0
283
     0
284
     8
285
     0
286
     0
287
     3
288
     0
  0
ENDTAB
  0
TABLE
  2
BLOCK_RECORD
  5
A01
330
0
100
AcDbSymbolTable
  70
5
  0
BLOCK_RECORD
  5
A02
330
A01
100
AcDbSymbolTableRecord
100
AcDbBlockTableRecord
  2
*MODEL_SPACE
  0
BLOCK_RECORD
  5
A03
330
A01
100
AcDbSymbolTableRecord
100
AcDbBlockTableRecord
  2
*PAPER_SPACE
  0
BLOCK_RECORD
  5
A13
330
A01
100
AcDbSymbolTableRecord
100
AcDbBlockTableRecord
  2
*Dimension
  0
BLOCK_RECORD
  5
A1D
330
A01
100
AcDbSymbolTableRecord
100
AcDbBlockTableRecord
  2
*Dimension
  0
BLOCK_RECORD
  5
A27
330
A01
100
AcDbSymbolTableRecord
100
AcDbBlockTableRecord
  2
*Dimension001
  0
BLOCK_RECORD
  5
A31
330
A01
100
AcDbSymbolTableRecord
100
AcDbBlockTableRecord
  2
*Dimension001
  0
BLOCK_RECORD
  5
A3B
330
A01
100
AcDbSymbolTableRecord
100
AcDbBlockTableRecord
  2
*FilletRadius
  0
BLOCK_RECORD
  5
A42
330
A01
100
AcDbSymbolTableRecord
100
AcDbBlockTableRecord
  2
*HoleRadius
  0
BLOCK_RECORD
  5
A49
330
A01
100
AcDbSymbolTableRecord
100
AcDbBlockTableRecord
  2
*Dimension002
  0
BLOCK_RECORD
  5
A53
330
A01
100
AcDbSymbolTableRecord
100
AcDbBlockTableRecord
  2
*Dimension002
  0
BLOCK_RECORD
  5
A5D
330
A01
100
AcDbSymbolTableRecord
100
AcDbBlockTableRecord
  2
*TabAngle
  0
ENDTAB
  0
ENDSEC
  0
SECTION
  2
BLOCKS
  0
BLOCK
  5
A04
330
A02
100
AcDbEntity
  8
0
100
AcDbBlockBegin
  2
*MODEL_SPACE
 70
   0
 10
0
 20
0
 30
0
  3
*MODEL_SPACE
  1
 
  0
ENDBLK
  5
A05
330
A02
100
AcDbEntity
  8
0
100
AcDbBlockEnd
  0
BLOCK
  5
A06
330
A03
100
AcDbEntity
 67
1
  8
0
100
AcDbBlockBegin
  2
*PAPER_SPACE
 70
   0
 10
0
 20
0
 30
0
  3
*PAPER_SPACE
  1
 
  0
ENDBLK
  5
A07
330
A03
100
AcDbEntity
 67
    1
  8
0
100
AcDbBlockEnd
  0
BLOCK
  5
A14
330
A13
100
AcDbEntity
  8
Dimension
100
AcDbBlockBegin
  2
*Dimension
 70
   1
 10
0
 20
0
 30
0
  3
*Dimension
  1
 
  0
LINE
  5
A15
330
A13
100
AcDbEntity
  8
Dimension
100
AcDbLine
 10
210
 20
46.8446
 30
0
 11
210
 21
41.8446
 31
0
  0
LINE
  5
A16
330
A13
100
AcDbEntity
  8
Dimension
100
AcDbLine
 10
90
 20
46.8446
 30
0
 11
90
 21
41.8446
 31
0
  0
LINE
  5
A17
330
A13
100
AcDbEntity
  8
Dimension
100
AcDbLine
 10
90
 20
41.8446
 30
0
 11
210
 21
41.8446
 31
0
  0
TEXT
  5
A18
330
A13
100
AcDbEntity
  8
Dimension
100
AcDbText
 10
150
 20
46.8446
 30
0
 40
3.5
  1
120
  7
STANDARD
 72
1
 11
150
 21
41.8446
 31
0
100
AcDbText
  0
SOLID
  5
A19
330
A13
100
AcDbEntity
  8
0
 62
     0
100
AcDbTrace
 10
85
 20
41.4279
 30
0
 11
85
 21
42.2612
 31
0
 12
90
 22
41.8446
 32
0
 13
90
 23
41.8446
 33
0
  0
SOLID
  5
A1A
330
A13
100
AcDbEntity
  8
0
 62
     0
100
AcDbTrace
 10
215
 20
41.4279
 30
0
 11
215
 21
42.2612
 31
0
 12
210
 22
41.8446
 32
0
 13
210
 23
41.8446
 33
0
  0
ENDBLK
  5
A1B
330
A13
100
AcDbEntity
  8
Dimension
100
AcDbBlockEnd
  0
BLOCK
  5
A1E
330
A1D
100
AcDbEntity
  8
Dimension
100
AcDbBlockBegin
  2
*Dimension
 70
   1
 10
0
 20
0
 30
0
  3
*Dimension
  1
 
  0
LINE
  5
A1F
330
A1D
100
AcDbEntity
  8
Dimension
100
AcDbLine
 10
210
 20
46.8446
 30
0
 11
210
 21
41.8446
 31
0
  0
LINE
  5
A20
330
A1D
100
AcDbEntity
  8
Dimension
100
AcDbLine
 10
90
 20
46.8446
 30
0
 11
90
 21
41.8446
 31
0
  0
LINE
  5
A21
330
A1D
100
AcDbEntity
  8
Dimension
100
AcDbLine
 10
90
 20
41.8446
 30
0
 11
210
 21
41.8446
 31
0
  0
TEXT
  5
A22
330
A1D
100
AcDbEntity
  8
Dimension
100
AcDbText
 10
150
 20
46.8446
 30
0
 40
3.5
  1
120
  7
STANDARD
 72
1
 11
150
 21
41.8446
 31
0
100
AcDbText
  0
SOLID
  5
A23
330
A1D
100
AcDbEntity
  8
0
 62
     0
100
AcDbTrace
 10
85
 20
41.4279
 30
0
 11
85
 21
42.2612
 31
0
 12
90
 22
41.8446
 32
0
 13
90
 23
41.8446
 33
0
  0
SOLID
  5
A24
330
A1D
100
AcDbEntity
  8
0
 62
     0
100
AcDbTrace
 10
215
 20
41.4279
 30
0
 11
215
 21
42.2612
 31
0
 12
210
 22
41.8446
 32
0
 13
210
 23
41.8446
 33
0
  0
ENDBLK
  5
A25
330
A1D
100
AcDbEntity
  8
Dimension
100
AcDbBlockEnd
  0
BLOCK
  5
A28
330
A27
100
AcDbEntity
  8
Dimension001
100
AcDbBlockBegin
  2
*Dimension001
 70
   1
 10
0
 20
0
 30
0
  3
*Dimension001
  1
 
  0
LINE
  5
A29
330
A27
100
AcDbEntity
  8
Dimension001
100
AcDbLine
 10
72
 20
175.155
 30
0
 11
57
 21
175.155
 31
0
  0
LINE
  5
A2A
330
A27
100
AcDbEntity
  8
Dimension001
100
AcDbLine
 10
72
 20
95.1554
 30
0
 11
57
 21
95.1554
 31
0
  0
LINE
  5
A2B
330
A27
100
AcDbEntity
  8
Dimension001
100
AcDbLine
 10
57
 20
95.1554
 30
0
 11
57
 21
175.155
 31
0
  0
TEXT
  5
A2C
330
A27
100
AcDbEntity
  8
Dimension001
100
AcDbText
 10
62
 20
135.155
 30
0
 40
3.5
  1
80
  7
STANDARD
 72
1
 11
57
 21
135.155
 31
0
100
AcDbText
  0
SOLID
  5
A2D
330
A27
100
AcDbEntity
  8
0
 62
     0
100
AcDbTrace
 10
56.5833
 20
90.1554
 30
0
 11
57.4167
 21
90.1554
 31
0
 12
57
 22
95.1554
 32
0
 13
57
 23
95.1554
 33
0
  0
SOLID
  5
A2E
330
A27
100
AcDbEntity
  8
0
 62
     0
100
AcDbTrace
 10
56.5833
 20
180.155
 30
0
 11
57.4167
 21
180.155
 31
0
 12
57
 22
175.155
 32
0
 13
57
 23
175.155
 33
0
  0
ENDBLK
  5
A2F
330
A27
100
AcDbEntity
  8
Dimension001
100
AcDbBlockEnd
  0
BLOCK
  5
A32
330
A31
100
AcDbEntity
  8
Dimension001
100
AcDbBlockBegin
  2
*Dimension001
 70
   1
 10
0
 20
0
 30
0
  3
*Dimension001
  1
 
  0
LINE
  5
A33
330
A31
100
AcDbEntity
  8
Dimension001
100
AcDbLine
 10
72
 20
175.155
 30
0
 11
57
 21
175.155
 31
0
  0
LINE
  5
A34
330
A31
100
AcDbEntity
  8
Dimension001
100
AcDbLine
 10
72
 20
95.1554
 30
0
 11
57
 21
95.1554
 31
0
  0
LINE
  5
A35
330
A31
100
AcDbEntity
  8
Dimension001
100
AcDbLine
 10
57
 20
95.1554
 30
0
 11
57
 21
175.155
 31
0
  0
TEXT
  5
A36
330
A31
100
AcDbEntity
  8
Dimension001
100
AcDbText
 10
62
 20
135.155
 30
0
 40
3.5
  1
80
  7
STANDARD
 72
1
 11
57
 21
135.155
 31
0
100
AcDbText
  0
SOLID
  5
A37
330
A31
100
AcDbEntity
  8
0
 62
     0
100
AcDbTrace
 10
56.5833
 20
90.1554
 30
0
 11
57.4167
 21
90.1554
 31
0
 12
57
 22
95.1554
 32
0
 13
57
 23
95.1554
 33
0
  0
SOLID
  5
A38
330
A31
100
AcDbEntity
  8
0
 62
     0
100
AcDbTrace
 10
56.5833
 20
180.155
 30
0
 11
57.4167
 21
180.155
 31
0
 12
57
 22
175.155
 32
0
 13
57
 23
175.155
 33
0
  0
ENDBLK
  5
A39
330
A31
100
AcDbEntity
  8
Dimension001
100
AcDbBlockEnd
  0
BLOCK
  5
A3C
330
A3B
100
AcDbEntity
  8
FilletRadius
100
AcDbBlockBegin
  2
*FilletRadius
 70
   1
 10
0
 20
0
 30
0
  3
*FilletRadius
  1
 
  0
LINE
  5
A3D
330
A3B
100
AcDbEntity
  8
FilletRadius
100
AcDbLine
 10
198
 20
163.155
 30
0
 11
208.8
 21
168.386
 31
0
  0
TEXT
  5
A3E
330
A3B
100
AcDbEntity
  8
FilletRadius
100
AcDbText
 10
213
 20
178.155
 30
0
 40
3.5
  1
R12
  7
STANDARD
 72
1
 11
213
 21
178.155
 31
0
100
AcDbText
  0
SOLID
  5
A3F
330
A3B
100
AcDbEntity
  8
0
 62
     0
100
AcDbTrace
 10
204.119
 20
166.581
 30
0
 11
204.482
 21
165.831
 31
0
 12
208.8
 22
168.386
 32
0
 13
208.8
 23
168.386
 33
0
  0
ENDBLK
  5
A40
330
A3B
100
AcDbEntity
  8
FilletRadius
100
AcDbBlockEnd
  0
BLOCK
  5
A43
330
A42
100
AcDbEntity
  8
HoleRadius
100
AcDbBlockBegin
  2
*HoleRadius
 70
   1
 10
0
 20
0
 30
0
  3
*HoleRadius
  1
 
  0
LINE
  5
A44
330
A42
100
AcDbEntity
  8
HoleRadius
100
AcDbLine
 10
150
 20
135.155
 30
0
 11
157.581
 21
132.6
 31
0
  0
TEXT
  5
A45
330
A42
100
AcDbEntity
  8
HoleRadius
100
AcDbText
 10
173
 20
135.155
 30
0
 40
3.5
  1
R8
  7
STANDARD
 72
1
 11
173
 21
135.155
 31
0
100
AcDbText
  0
SOLID
  5
A46
330
A42
100
AcDbEntity
  8
0
 62
     0
100
AcDbTrace
 10
152.976
 20
134.592
 30
0
 11
152.71
 21
133.802
 31
0
 12
157.581
 22
132.6
 32
0
 13
157.581
 23
132.6
 33
0
  0
ENDBLK
  5
A47
330
A42
100
AcDbEntity
  8
HoleRadius
100
AcDbBlockEnd
  0
BLOCK
  5
A4A
330
A49
100
AcDbEntity
  8
Dimension002
100
AcDbBlockBegin
  2
*Dimension002
 70
   1
 10
0
 20
0
 30
0
  3
*Dimension002
  1
 
  0
LINE
  5
A4B
330
A49
100
AcDbEntity
  8
Dimension002
100
AcDbLine
 10
167.5
 20
64.8446
 30
0
 11
178.75
 21
71.3397
 31
0
  0
LINE
  5
A4C
330
A49
100
AcDbEntity
  8
Dimension002
100
AcDbLine
 10
150
 20
95.1554
 30
0
 11
161.25
 21
101.651
 31
0
  0
LINE
  5
A4D
330
A49
100
AcDbEntity
  8
Dimension002
100
AcDbLine
 10
161.25
 20
101.651
 30
0
 11
178.75
 21
71.3397
 31
0
  0
TEXT
  5
A4E
330
A49
100
AcDbEntity
  8
Dimension002
100
AcDbText
 10
173.75
 20
75
 30
0
 40
3.5
  1
35
  7
STANDARD
 72
1
 11
178.08
 21
72.5
 31
0
100
AcDbText
  0
SOLID
  5
A4F
330
A49
100
AcDbEntity
  8
0
 62
     0
100
AcDbTrace
 10
163.389
 20
97.1122
 30
0
 11
164.111
 21
97.5288
 31
0
 12
161.25
 22
101.651
 32
0
 13
161.25
 23
101.651
 33
0
  0
SOLID
  5
A50
330
A49
100
AcDbEntity
  8
0
 62
     0
100
AcDbTrace
 10
175.889
 20
75.4615
 30
0
 11
176.611
 21
75.8782
 31
0
 12
178.75
 22
71.3397
 32
0
 13
178.75
 23
71.3397
 33
0
  0
ENDBLK
  5
A51
330
A49
100
AcDbEntity
  8
Dimension002
100
AcDbBlockEnd
  0
BLOCK
  5
A54
330
A53
100
AcDbEntity
  8
Dimension002
100
AcDbBlockBegin
  2
*Dimension002
 70
   1
 10
0
 20
0
 30
0
  3
*Dimension002
  1
 
  0
LINE
  5
A55
330
A53
100
AcDbEntity
  8
Dimension002
100
AcDbLine
 10
167.5
 20
64.8446
 30
0
 11
178.75
 21
71.3397
 31
0
  0
LINE
  5
A56
330
A53
100
AcDbEntity
  8
Dimension002
100
AcDbLine
 10
150
 20
95.1554
 30
0
 11
161.25
 21
101.651
 31
0
  0
LINE
  5
A57
330
A53
100
AcDbEntity
  8
Dimension002
100
AcDbLine
 10
161.25
 20
101.651
 30
0
 11
178.75
 21
71.3397
 31
0
  0
TEXT
  5
A58
330
A53
100
AcDbEntity
  8
Dimension002
100
AcDbText
 10
173.75
 20
75
 30
0
 40
3.5
  1
35
  7
STANDARD
 72
1
 11
178.08
 21
72.5
 31
0
100
AcDbText
  0
SOLID
  5
A59
330
A53
100
AcDbEntity
  8
0
 62
     0
100
AcDbTrace
 10
163.389
 20
97.1122
 30
0
 11
164.111
 21
97.5288
 31
0
 12
161.25
 22
101.651
 32
0
 13
161.25
 23
101.651
 33
0
  0
SOLID
  5
A5A
330
A53
100
AcDbEntity
  8
0
 62
     0
100
AcDbTrace
 10
175.889
 20
75.4615
 30
0
 11
176.611
 21
75.8782
 31
0
 12
178.75
 22
71.3397
 32
0
 13
178.75
 23
71.3397
 33
0
  0
ENDBLK
  5
A5B
330
A53
100
AcDbEntity
  8
Dimension002
100
AcDbBlockEnd
  0
BLOCK
  5
A5E
330
A5D
100
AcDbEntity
  8
TabAngle
100
AcDbBlockBegin
  2
*TabAngle
 70
   1
 10
0
 20
0
 30
0
  3
*TabAngle
  1
 
  0
ARC
  5
A5F
330
A5D
100
AcDbEntity
  8
0
100
AcDbCircle
 10
150
 20
95.1554
 30
0
 40
10.7139
100
AcDbArc
 50
300
 51
180
  0
TEXT
  5
A60
330
A5D
100
AcDbEntity
  8
TabAngle
100
AcDbText
 10
138
 20
87.1554
 30
0
 40
3.5
  1
120°
  7
STANDARD
 72
1
 11
138
 21
87.1554
 31
0
100
AcDbText
  0
SOLID
  5
A61
330
A5D
100
AcDbEntity
  8
0
 62
     0
100
AcDbTrace
 10
140.733
 20
99.9596
 30
0
 11
139.918
 21
100.133
 31
0
 12
139.286
 22
95.1554
 32
0
 13
139.286
 23
95.1554
 33
0
  0
SOLID
  5
A62
330
A5D
100
AcDbEntity
  8
0
 62
     0
100
AcDbTrace
 10
159.351
 20
88.913
 30
0
 11
158.794
 21
89.5323
 31
0
 12
155.357
 22
85.877
 32
0
 13
155.357
 23
85.877
 33
0
  0
ENDBLK
  5
A63
330
A5D
100
AcDbEntity
  8
TabAngle
100
AcDbBlockEnd
  0
ENDSEC
  0
SECTION
  2
ENTITIES
  0
LINE
  5
A08
330
A02
100
AcDbEntity
  8
TopView
100
AcDbLine
 10
90
 20
95.1554
 30
0
 11
150
 21
95.1554
 31
0
  0
LINE
  5
A09
330
A02
100
AcDbEntity
  8
TopView
100
AcDbLine
 10
90
 20
163.155
 30
0
 11
90
 21
95.1554
 31
0
  0
LINE
  5
A0A
330
A02
100
AcDbEntity
  8
TopView
100
AcDbLine
 10
150
 20
95.1554
 30
0
 11
167.5
 21
64.8446
 31
0
  0
ARC
  5
A0B
330
A02
100
AcDbEntity
  8
TopView
100
AcDbCircle
 10
102
 20
163.155
 30
0
 40
12
100
AcDbArc
 50
90
 51
180
  0
LINE
  5
A0C
330
A02
100
AcDbEntity
  8
TopView
100
AcDbLine
 10
167.5
 20
64.8446
 30
0
 11
167.5
 21
95.1554
 31
0
  0
LINE
  5
A0D
330
A02
100
AcDbEntity
  8
TopView
100
AcDbLine
 10
198
 20
175.155
 30
0
 11
102
 21
175.155
 31
0
  0
LINE
  5
A0E
330
A02
100
AcDbEntity
  8
TopView
100
AcDbLine
 10
167.5
 20
95.1554
 30
0
 11
210
 21
95.1554
 31
0
  0
ARC
  5
A0F
330
A02
100
AcDbEntity
  8
TopView
100
AcDbCircle
 10
198
 20
163.155
 30
0
 40
12
100
AcDbArc
 50
0
 51
90
  0
LINE
  5
A10
330
A02
100
AcDbEntity
  8
TopView
100
AcDbLine
 10
210
 20
95.1554
 30
0
 11
210
 21
163.155
 31
0
  0
CIRCLE
  5
A11
330
A02
100
AcDbEntity
  8
TopView
100
AcDbCircle
 10
150
 20
135.155
 40
8
  0
DIMENSION
  5
A12
330
A02
100
AcDbEntity
  8
Dimension
100
AcDbDimension
  2
*Dimension
 10
150
 20
41.8446
 30
0
 11
150
 21
46.8446
 31
0
 70
32
  1
120
  3
STANDARD
100
AcDbAlignedDimension
 13
90
 23
46.8446
 33
0
 14
210
 24
46.8446
 34
0
100
AcDbRotatedDimension
  0
DIMENSION
  5
A1C
330
A02
100
AcDbEntity
  8
Dimension
100
AcDbDimension
  2
*Dimension
 10
150
 20
41.8446
 30
0
 11
150
 21
46.8446
 31
0
 70
32
  1
120
  3
STANDARD
100
AcDbAlignedDimension
 13
90
 23
46.8446
 33
0
 14
210
 24
46.8446
 34
0
100
AcDbRotatedDimension
  0
DIMENSION
  5
A26
330
A02
100
AcDbEntity
  8
Dimension001
100
AcDbDimension
  2
*Dimension001
 10
57
 20
135.155
 30
0
 11
62
 21
135.155
 31
0
 70
32
  1
80
  3
STANDARD
100
AcDbAlignedDimension
 13
72
 23
95.1554
 33
0
 14
72
 24
175.155
 34
0
 50
90
100
AcDbRotatedDimension
  0
DIMENSION
  5
A30
330
A02
100
AcDbEntity
  8
Dimension001
100
AcDbDimension
  2
*Dimension001
 10
57
 20
135.155
 30
0
 11
62
 21
135.155
 31
0
 70
32
  1
80
  3
STANDARD
100
AcDbAlignedDimension
 13
72
 23
95.1554
 33
0
 14
72
 24
175.155
 34
0
 50
90
100
AcDbRotatedDimension
  0
DIMENSION
  5
A3A
330
A02
100
AcDbEntity
  8
FilletRadius
100
AcDbDimension
  2
*FilletRadius
 10
198
 20
163.155
 30
0
 11
213
 21
178.155
 31
0
 70
4
  1
R12
  3
STANDARD
100
AcDbRadialDimension
 15
208.8
 25
168.386
 35
0
 40
0
  0
DIMENSION
  5
A41
330
A02
100
AcDbEntity
  8
HoleRadius
100
AcDbDimension
  2
*HoleRadius
 10
150
 20
135.155
 30
0
 11
173
 21
135.155
 31
0
 70
4
  1
R8
  3
STANDARD
100
AcDbRadialDimension
 15
157.581
 25
132.6
 35
0
 40
0
  0
DIMENSION
  5
A48
330
A02
100
AcDbEntity
  8
Dimension002
100
AcDbDimension
  2
*Dimension002
 10
178.08
 20
72.5
 30
0
 11
173.75
 21
75
 31
0
 70
1
  1
35
  3
STANDARD
100
AcDbAlignedDimension
 13
150
 23
95.1554
 33
0
 14
167.5
 24
64.8446
 34
0
  0
DIMENSION
  5
A52
330
A02
100
AcDbEntity
  8
Dimension002
100
AcDbDimension
  2
*Dimension002
 10
178.08
 20
72.5
 30
0
 11
173.75
 21
75
 31
0
 70
1
  1
35
  3
STANDARD
100
AcDbAlignedDimension
 13
150
 23
95.1554
 33
0
 14
167.5
 24
64.8446
 34
0
  0
DIMENSION
  5
A5C
330
A02
100
AcDbEntity
  8
TabAngle
100
AcDbDimension
  2
*TabAngle
 10
167.5
 20
64.8446
 30
0
 11
138
 21
87.1554
 31
0
 70
2
  1
120°
  3
STANDARD
100
AcDb2LineAngularDimension
 13
150
 23
95.1554
 33
0
 14
90
 24
95.1554
 34
0
 15
150
 25
95.1554
 35
0
 16
139.821
 26
91.812
 36
0
  0
TEXT
  5
A64
330
A02
100
AcDbEntity
  8
Title
100
AcDbText
 10
150
 20
25
 30
0
 40
6
  1
Mounting Bracket
  7
STANDARD
 72
1
 11
150
 21
25
 31
0
100
AcDbText
  0
TEXT
  5
A65
330
A02
100
AcDbEntity
  8
Material
100
AcDbText
 10
150
 20
33
 30
0
 40
4
  1
Material: Steel, 3mm
  7
STANDARD
 72
1
 11
150
 21
33
 31
0
100
AcDbText
  0
ENDSEC
  0
SECTION
  2
OBJECTS
  0
DICTIONARY
  5
F000
330
0
100
AcDbDictionary
  3
ACAD_GROUP
350
F001
  0
DICTIONARY
  5
F001
330
F000
100
AcDbDictionary
  0
ENDSEC
  0
EOF